 <svg
                  xmlns="http://www.w3.org/2000/svg"
                  xmlns:xlink="http://www.w3.org/1999/xlink"
                  version="1.1"
                  x="0px"
                  y="0px"
                  viewBox="0 0 64 64"
                  style="enable-background: new 0 0 64 64; max-width: 100%;"
                  xml:space="preserve"
                  height="100%"
                >
                  <path
                    d="M17,46v14c0,0.552,0.447,1,1,1h7c0,0.552,0.447,1,1,1h12c0.553,0,1-0.448,1-1h7c0.553,0,1-0.448,1-1V46c0-0.552-0.447-1-1-1  h-7v-4c0-0.552-0.447-1-1-1h-1v-1c0-1.654-1.346-3-3-3h-1v-2h-2v2h-1c-1.654,0-3,1.346-3,3v1h-1c-0.553,0-1,0.448-1,1v4h-7  C17.447,45,17,45.448,17,46z M45,47v12h-6V47H45z M33,60h-2v-2h2V60z M29,39c0-0.551,0.448-1,1-1h4c0.552,0,1,0.449,1,1v1h-6V39z   M27,42h10v18h-2v-3c0-0.552-0.447-1-1-1h-4c-0.553,0-1,0.448-1,1v3h-2V42z M19,47h6v12h-6V47z"
                    style=""
                    fill="#cee002"
                  ></path>
                  <rect
                    x="29"
                    y="44"
                    width="6"
                    height="2"
                    style=""
                    fill="#cee002"
                  ></rect>
                  <rect
                    x="29"
                    y="48"
                    width="6"
                    height="2"
                    style=""
                    fill="#cee002"
                  ></rect>
                  <rect
                    x="29"
                    y="52"
                    width="6"
                    height="2"
                    style=""
                    fill="#cee002"
                  ></rect>
                  <rect
                    x="21"
                    y="49"
                    width="2"
                    height="2"
                    style=""
                    fill="#cee002"
                  ></rect>
                  <rect
                    x="21"
                    y="53"
                    width="2"
                    height="2"
                    style=""
                    fill="#cee002"
                  ></rect>
                  <rect
                    x="41"
                    y="49"
                    width="2"
                    height="2"
                    style=""
                    fill="#cee002"
                  ></rect>
                  <rect
                    x="41"
                    y="53"
                    width="2"
                    height="2"
                    style=""
                    fill="#cee002"
                  ></rect>
                  <path
                    d="M24.048,7.639c-0.117,0.366-0.015,0.766,0.265,1.03l3.109,2.946l-0.732,4.153c-0.066,0.374,0.085,0.752,0.39,0.978  c0.306,0.226,0.712,0.259,1.05,0.086L32,14.854l3.871,1.979c0.144,0.073,0.3,0.109,0.455,0.109c0.21,0,0.419-0.066,0.595-0.196  c0.305-0.226,0.456-0.604,0.39-0.978l-0.732-4.153l3.109-2.946c0.279-0.264,0.382-0.665,0.265-1.03  c-0.116-0.366-0.433-0.632-0.812-0.686l-4.32-0.61l-1.928-3.795c-0.342-0.672-1.441-0.672-1.783,0l-1.928,3.795l-4.32,0.61  C24.48,7.007,24.164,7.273,24.048,7.639z M29.977,8.25c0.323-0.046,0.604-0.247,0.752-0.538L32,5.209l1.271,2.504  c0.147,0.291,0.429,0.492,0.752,0.538l2.783,0.393l-1.994,1.89c-0.244,0.231-0.355,0.569-0.297,0.9l0.477,2.704l-2.537-1.297  c-0.143-0.073-0.299-0.109-0.455-0.109s-0.312,0.037-0.455,0.109l-2.537,1.297l0.477-2.704c0.059-0.331-0.053-0.669-0.297-0.9  l-1.994-1.89L29.977,8.25z"
                    style=""
                    fill="#cee002"
                  ></path>
                  <path
                    d="M2,34c0,4.962,4.037,9,9,9s9-4.038,9-9s-4.037-9-9-9S2,29.038,2,34z M7.025,39.755C7.152,38.217,8.43,37,10,37h2  c1.57,0,2.848,1.217,2.975,2.755C13.845,40.538,12.476,41,11,41S8.155,40.538,7.025,39.755z M11,35c-1.103,0-2-0.897-2-2  s0.897-2,2-2s2,0.897,2,2S12.103,35,11,35z M11,27c3.859,0,7,3.14,7,7c0,1.549-0.512,2.978-1.368,4.139  c-0.474-1.174-1.381-2.119-2.522-2.655C14.658,34.799,15,33.943,15,33c0-2.206-1.794-4-4-4s-4,1.794-4,4  c0,0.943,0.342,1.799,0.889,2.484c-1.141,0.536-2.048,1.481-2.522,2.655C4.512,36.978,4,35.549,4,34C4,30.14,7.141,27,11,27z"
                    style=""
                    fill="#cee002"
                  ></path>
                  <path
                    d="M53,25c-4.963,0-9,4.038-9,9s4.037,9,9,9s9-4.038,9-9S57.963,25,53,25z M49.025,39.755C49.152,38.217,50.43,37,52,37h2  c1.57,0,2.848,1.217,2.975,2.755C55.845,40.538,54.476,41,53,41S50.155,40.538,49.025,39.755z M53,35c-1.103,0-2-0.897-2-2  s0.897-2,2-2s2,0.897,2,2S54.103,35,53,35z M58.632,38.139c-0.474-1.174-1.381-2.119-2.522-2.655C56.658,34.799,57,33.943,57,33  c0-2.206-1.794-4-4-4s-4,1.794-4,4c0,0.943,0.342,1.799,0.889,2.484c-1.141,0.536-2.048,1.481-2.522,2.655  C46.512,36.978,46,35.549,46,34c0-3.86,3.141-7,7-7s7,3.14,7,7C60,35.549,59.488,36.978,58.632,38.139z"
                    style=""
                    fill="#cee002"
                  ></path>
                  <path
                    d="M10,45v7c0,0.552,0.447,1,1,1h4v-2h-3v-6H10z"
                    style=""
                    fill="#cee002"
                  ></path>
                  <path
                    d="M54,52v-7h-2v6h-3v2h4C53.553,53,54,52.552,54,52z"
                    style=""
                    fill="#cee002"
                  ></path>
                  <path
                    d="M21.515,10.143l-5-3c-0.31-0.186-0.694-0.19-1.008-0.013C15.193,7.307,15,7.64,15,8v2h-4c-0.553,0-1,0.448-1,1v12h2V12h3v2  c0,0.36,0.193,0.693,0.507,0.87C15.66,14.957,15.83,15,16,15c0.178,0,0.356-0.047,0.515-0.143l5-3C21.815,11.677,22,11.351,22,11  S21.815,10.323,21.515,10.143z M17,12.234V9.766L19.057,11L17,12.234z"
                    style=""
                    fill="#cee002"
                  ></path>
                  <path
                    d="M48.493,7.13c-0.313-0.178-0.698-0.173-1.008,0.013l-5,3C42.185,10.323,42,10.649,42,11s0.185,0.677,0.485,0.857l5,3  C47.644,14.953,47.822,15,48,15c0.17,0,0.34-0.043,0.493-0.13C48.807,14.693,49,14.36,49,14v-2h3v11h2V11c0-0.552-0.447-1-1-1h-4V8  C49,7.64,48.807,7.307,48.493,7.13z M47,12.234L44.943,11L47,9.766V12.234z"
                    style=""
                    fill="#cee002"
                  ></path>
                </svg>